#!OML:ASF X:\für Bonn\!DataBase\2005_08_10_Bjorn_Final\c3d\bjorn.ASF
:FULLY-SPECIFIED
:DEGREES
47
root 18.2048 19.0852 0.507204 124.473 -93.4695 -129.847
lowerback 17.4587 1.68752 -2.6134
upperback 19.8307 -0.0913148 0.120619
thorax 12.3729 -1.22594 1.40812
lowerneck 0.055519 -1.26425 2.00596
upperneck 15.3035 -1.52678 -4.64205
head 4.50971 -1.00606 -1.83099
rclavicle -4.87022e-015 -1.59028e-014
rhumerus -15.5321 -7.47769 -84.1632
rradius 31.0859
rwrist -7.77443
rhand -13.0708 10.3513
rfingers 7.12502
rthumb 13.0249 -19.2221
lclavicle -4.87022e-015 -1.59028e-014
lhumerus -5.84168 -13.275 75.7761
lradius 57.0424
lwrist -5.214
lhand -28.9149 -7.86969
lfingers 7.12502
lthumb -2.26949 22.098
rfemur -21.1983 -7.58647 12.8666
rtibia 31.2151
rfoot -2.50792 14.7361
rtoes -0.941929
lfemur 0.572916 9.49724 -21.9777
ltibia 26.8465
lfoot -13.506 -9.51685
ltoes -2.66178
48
root 18.1423 19.0798 0.505977 125.198 -93.6291 -130.441
lowerback 17.9039 1.70058 -2.29499
upperback 20.0366 -0.108483 0.140338
thorax 12.3994 -1.21336 1.2512
lowerneck 0.65478 -1.41013 2.09292
upperneck 14.0318 -1.75416 -4.46665
head 4.46196 -1.06618 -1.95741
rclavicle 8.54774e-015 -6.26172e-015
rhumerus -14.7465 -7.10845 -84.1763
rradius 31.2824
rwrist -7.92662
rhand -13.1793 10.4281
rfingers 7.12502
rthumb 12.9204 -19.1519
lclavicle 8.54774e-015 -6.26172e-015
lhumerus -5.92488 -13.2682 75.822
lradius 57.5852
lwrist -5.21717
lhand -28.5989 -7.60904
lfingers 7.12502
lthumb -1.96435 22.3617
rfemur -21.1294 -7.53076 12.8029
rtibia 31.1066
rfoot -2.01894 14.1766
rtoes -0.210542
lfemur 0.635771 9.43891 -22.0719
ltibia 26.8602
lfoot -13.5762 -9.64387
ltoes -2.45873
49
root 18.0802 19.0738 0.504024 125.299 -93.808 -130.416
lowerback 18.3566 1.72979 -2.03778
upperback 20.2734 -0.11744 0.188867
thorax 12.4659 -1.2106 1.15866
lowerneck 1.05621 -1.55532 2.11545
upperneck 13.2778 -1.94375 -4.43023
head 4.10137 -1.14102 -1.92763
rclavicle -6.85807e-015 -5.96354e-015
rhumerus -13.8518 -6.72431 -84.1422
rradius 31.4674
rwrist -8.03205
rhand -13.1965 10.4864
rfingers 7.12502
rthumb 12.9038 -19.0947
lclavicle -6.85807e-015 -5.96354e-015
lhumerus -5.97439 -13.2308 75.9407
lradius 58.091
lwrist -5.10892
lhand -28.2733 -7.38886
lfingers 7.12502
lthumb -1.64989 22.5845
rfemur -21.0612 -7.50861 12.6932
rtibia 31.0739
rfoot -1.60475 13.6574
rtoes 0.519693
lfemur 0.701419 9.39143 -22.2083
ltibia 26.8701
lfoot -13.6204 -9.74154
ltoes -2.09594
50
root 18.0199 19.07 0.502356 125.793 -93.9824 -130.766
lowerback 18.8068 1.7433 -1.72445
upperback 20.5129 -0.139582 0.226549
thorax 12.541 -1.20529 1.024
lowerneck 1.43827 -1.6951 2.17289
upperneck 12.5582 -2.12842 -4.3804
head 3.76298 -1.21262 -1.90036
rclavicle -1.47101e-014 -2.78299e-014
rhumerus -12.9024 -6.28631 -84.1221
rradius 31.6157
rwrist -8.22813
rhand -13.1901 10.5577
rfingers 7.12502
rthumb 12.91 -19.023
lclavicle -1.47101e-014 -2.78299e-014
lhumerus -6.03265 -13.2492 76.0363
lradius 58.4463
lwrist -5.105
lhand -28.1549 -7.36082
lfingers 7.12502
lthumb -1.53553 22.6134
rfemur -21.0171 -7.57832 12.6152
rtibia 31.0937
rfoot -1.30773 13.223
rtoes 0.957673
lfemur 0.735409 9.30346 -22.329
ltibia 26.8838
lfoot -13.6441 -9.84899
ltoes -1.4974
51
root 17.9609 19.0647 0.500252 126.305 -94.1386 -131.136
lowerback 19.2897 1.76667 -1.39697
upperback 20.7535 -0.149151 0.283582
thorax 12.6035 -1.19363 0.90256
lowerneck 1.71271 -1.84416 2.24681
upperneck 11.9654 -2.32618 -4.32734
head 3.49405 -1.29293 -1.88009
rclavicle -7.7526e-015 -7.15625e-015
rhumerus -11.8858 -5.89419 -84.0632
rradius 31.6912
rwrist -8.38908
rhand -13.1275 10.6494
rfingers 7.12502
rthumb 12.9703 -18.9274
lclavicle -7.7526e-015 -7.15625e-015
lhumerus -6.12986 -13.329 76.1494
lradius 58.6979
lwrist -5.30983
lhand -28.2341 -7.38956
lfingers 7.12502
lthumb -1.61204 22.5841
rfemur -20.9866 -7.77408 12.5611
rtibia 31.1637
rfoot -1.03999 12.9545
rtoes 1.33922
lfemur 0.750581 9.23798 -22.4299
ltibia 26.9351
lfoot -13.735 -9.93634
ltoes -1.29927
52
root 17.9036 19.0629 0.497948 127.006 -94.3073 -131.677
lowerback 19.7712 1.77583 -1.06903
upperback 20.9865 -0.175093 0.35772
thorax 12.6611 -1.19072 0.801917
lowerneck 1.96089 -1.99797 2.31608
upperneck 11.424 -2.52853 -4.29374
head 3.2509 -1.37819 -1.86689
rclavicle 5.56597e-015 -7.95139e-016
rhumerus -10.8133 -5.47547 -83.9432
rradius 31.691
rwrist -8.60268
rhand -13.0012 10.7623
rfingers 7.12502
rthumb 13.092 -18.8067
lclavicle 5.56597e-015 -7.95139e-016
lhumerus -6.27255 -13.3965 76.3288
lradius 58.8972
lwrist -5.55134
lhand -28.3665 -7.44428
lfingers 7.12502
lthumb -1.73988 22.5284
rfemur -20.9814 -7.97324 12.5087
rtibia 31.2494
rfoot -0.878502 12.7121
rtoes 1.46892
lfemur 0.708006 9.12311 -22.544
ltibia 27.0356
lfoot -13.8282 -9.98346
ltoes -1.06846
53
root 17.847 19.0595 0.495039 127.947 -94.4474 -132.431
lowerback 20.2457 1.78861 -0.713621
upperback 21.2115 -0.191032 0.457181
thorax 12.7156 -1.18042 0.714227
lowerneck 2.16254 -2.17581 2.46192
upperneck 10.9429 -2.75892 -4.31621
head 3.03745 -1.47771 -1.8881
rclavicle -1.07344e-014 -1.03368e-014
rhumerus -9.69617 -4.98623 -83.7554
rradius 31.622
rwrist -8.92465
rhand -12.9024 10.8667
rfingers 7.12502
rthumb 13.1873 -18.6963
lclavicle -1.07344e-014 -1.03368e-014
lhumerus -6.44097 -13.4841 76.5498
lradius 59.063
lwrist -5.80664
lhand -28.4987 -7.46236
lfingers 7.12502
lthumb -1.86754 22.5092
rfemur -21.0223 -8.21737 12.5001
rtibia 31.3569
rfoot -0.814026 12.5852
rtoes 1.26036
lfemur 0.605522 9.03402 -22.6146
ltibia 27.1903
lfoot -13.934 -10.0485
ltoes -1.03033
54
root 17.7921 19.0568 0.491329 129.564 -94.5665 -133.83
lowerback 20.7175 1.78383 -0.324052
upperback 21.42 -0.22299 0.597447
thorax 12.7545 -1.17606 0.655939
lowerneck 2.39452 -2.34291 2.56768
upperneck 10.4671 -2.97768 -4.29685
head 2.82328 -1.57248 -1.88686
rclavicle -1.03368e-014 -1.63003e-014
rhumerus -8.54691 -4.4636 -83.5005
rradius 31.4991
rwrist -9.18741
rhand -12.8235 10.9978
rfingers 7.12502
rthumb 13.2633 -18.5602
lclavicle -1.03368e-014 -1.63003e-014
lhumerus -6.66632 -13.5528 76.8593
lradius 59.1887
lwrist -5.99899
lhand -28.6128 -7.52759
lfingers 7.12502
lthumb -1.97774 22.443
rfemur -21.1179 -8.46737 12.5577
rtibia 31.4779
rfoot -0.843891 12.4896
rtoes 0.689408
lfemur 0.432118 8.89509 -22.6372
ltibia 27.3897
lfoot -14.0606 -10.0701
ltoes -1.18507
55
root 17.7386 19.0553 0.487393 130.772 -94.7102 -134.773
lowerback 21.1585 1.78575 0.0113282
upperback 21.6264 -0.249495 0.745376
thorax 12.81 -1.17664 0.636281
lowerneck 2.65177 -2.50989 2.6738
upperneck 9.94414 -3.19415 -4.29621
head 2.59056 -1.66674 -1.88949
rclavicle -3.97569e-016 -6.75868e-015
rhumerus -7.34161 -3.81146 -83.171
rradius 31.3002
rwrist -9.37334
rhand -12.8962 11.1003
rfingers 7.12502
rthumb 13.1933 -18.4622
lclavicle -3.97569e-016 -6.75868e-015
lhumerus -6.90964 -13.626 77.2246
lradius 59.2647
lwrist -6.08986
lhand -28.6995 -7.5915
lfingers 7.12502
lthumb -2.06149 22.3783
rfemur -21.2981 -8.74812 12.5787
rtibia 31.6213
rfoot -0.948638 12.4971
rtoes -0.239374
lfemur 0.172068 8.76926 -22.7108
ltibia 27.6486
lfoot -14.2081 -10.0571
ltoes -1.71005
